<?xml version="1.0" encoding="UTF-8" standalone="no"?>
<!-- Created with Inkscape (http://www.inkscape.org/) -->

<svg
   xmlns:dc="http://purl.org/dc/elements/1.1/"
   xmlns:cc="http://creativecommons.org/ns#"
   xmlns:rdf="http://www.w3.org/1999/02/22-rdf-syntax-ns#"
   xmlns:svg="http://www.w3.org/2000/svg"
   xmlns="http://www.w3.org/2000/svg"
   xmlns:sodipodi="http://sodipodi.sourceforge.net/DTD/sodipodi-0.dtd"
   xmlns:inkscape="http://www.inkscape.org/namespaces/inkscape"
   width="210mm"
   height="297mm"
   viewBox="0 0 210 297"
   version="1.1"
   id="svg8"
   inkscape:version="0.92.3 (unknown)"
   sodipodi:docname="capi_hnizdo.svg">
  <defs
     id="defs2" />
  <sodipodi:namedview
     id="base"
     pagecolor="#ffffff"
     bordercolor="#666666"
     borderopacity="1.0"
     inkscape:pageopacity="0.0"
     inkscape:pageshadow="2"
     inkscape:zoom="0.98994949"
     inkscape:cx="293.18015"
     inkscape:cy="556.95887"
     inkscape:document-units="mm"
     inkscape:current-layer="layer1"
     showgrid="true"
     inkscape:window-width="1286"
     inkscape:window-height="658"
     inkscape:window-x="80"
     inkscape:window-y="0"
     inkscape:window-maximized="1">
    <inkscape:grid
       type="xygrid"
       id="grid4518" />
  </sodipodi:namedview>
  <metadata
     id="metadata5">
    <rdf:RDF>
      <cc:Work
         rdf:about="">
        <dc:format>image/svg+xml</dc:format>
        <dc:type
           rdf:resource="http://purl.org/dc/dcmitype/StillImage" />
        <dc:title />
      </cc:Work>
    </rdf:RDF>
  </metadata>
  <g
     inkscape:label="Vrstva 1"
     inkscape:groupmode="layer"
     id="layer1">
    <path
       style="fill:none;fill-rule:evenodd;stroke:#000000;stroke-width:1;stroke-linecap:butt;stroke-linejoin:miter;stroke-miterlimit:4;stroke-dasharray:none;stroke-opacity:1"
       d="m 37.041667,175.29167 c 0,0 7.559523,9.82738 18.142856,9.82738 10.583333,0 15.686012,-8.50447 26.269345,-8.50447 10.583334,0 13.796139,3.96875 19.087802,9.26042 C 105.83334,191.16666 127,175.29167 127,175.29167"
       id="path4524"
       inkscape:connector-curvature="0"
       sodipodi:nodetypes="csscc" />
    <path
       style="fill:none;fill-rule:evenodd;stroke:#000000;stroke-width:1;stroke-linecap:butt;stroke-linejoin:miter;stroke-miterlimit:4;stroke-dasharray:none;stroke-opacity:1"
       d="m 37.041667,183.22917 c 0,0 6.614583,-5.10269 17.197916,-5.10269 10.583334,0 14.363096,3.59078 24.94643,3.59078 10.583333,0 26.647317,-14.36309 42.522317,4.15774"
       id="path4524-3"
       inkscape:connector-curvature="0"
       sodipodi:nodetypes="cssc" />
    <path
       style="fill:none;fill-rule:evenodd;stroke:#000000;stroke-width:1;stroke-linecap:butt;stroke-linejoin:miter;stroke-miterlimit:4;stroke-dasharray:none;stroke-opacity:1"
       d="m 31.75,180.58333 c 0,0 10.583333,-5.29167 21.166666,-5.29167 10.583334,0 10.583334,10.58333 21.166668,10.58333 10.583333,0 31.749996,-13.22916 50.270836,-5.29166"
       id="path4524-6"
       inkscape:connector-curvature="0"
       sodipodi:nodetypes="cssc" />
    <path
       style="fill:none;fill-rule:evenodd;stroke:#000000;stroke-width:1;stroke-linecap:butt;stroke-linejoin:miter;stroke-miterlimit:4;stroke-dasharray:none;stroke-opacity:1"
       d="m 42.333333,185.875 c 0,0 4.157738,-3.40179 14.741071,-3.40179 10.583334,0 6.992564,6.80357 17.575898,6.80357 10.583333,0 25.891368,-11.33928 41.766368,-0.75595"
       id="path4524-7"
       inkscape:connector-curvature="0"
       sodipodi:nodetypes="cssc" />
    <path
       style="fill:none;fill-rule:evenodd;stroke:#000000;stroke-width:1;stroke-linecap:butt;stroke-linejoin:miter;stroke-miterlimit:4;stroke-dasharray:none;stroke-opacity:1"
       d="m 42.333333,183.22917 c 0,0 5.858631,5.29166 16.441964,5.29166 10.583334,0 4.34673,-4.72471 14.930064,-4.72471 10.583333,0 18.898812,-0.56696 24.190472,4.72471 5.291667,5.29166 23.812497,-5.29166 23.812497,-5.29166"
       id="path4524-5"
       inkscape:connector-curvature="0"
       sodipodi:nodetypes="csscc" />
    <path
       style="fill:none;fill-rule:evenodd;stroke:#000000;stroke-width:1;stroke-linecap:butt;stroke-linejoin:miter;stroke-miterlimit:4;stroke-dasharray:none;stroke-opacity:1"
       d="m 34.395833,175.29167 c 0,0 7.559524,4.91369 18.142857,4.91369 10.583334,0 12.662203,-6.04762 23.245537,-6.04762 10.583333,0 22.111613,1.13392 27.403273,6.42559 5.29167,5.29166 15.875,-2.64583 15.875,-2.64583"
       id="path4524-35"
       inkscape:connector-curvature="0"
       sodipodi:nodetypes="csscc" />
    <path
       style="fill:none;fill-rule:evenodd;stroke:#000000;stroke-width:1;stroke-linecap:butt;stroke-linejoin:miter;stroke-miterlimit:4;stroke-dasharray:none;stroke-opacity:1"
       d="m 34.395833,170 c 0,0 10.394346,2.45684 20.977679,2.45684 10.583334,0 15.119048,6.42559 25.702382,6.42559 10.583333,0 19.465776,-11.52827 24.757436,-6.2366 5.29167,5.29166 18.52084,0 18.52084,0"
       id="path4524-62"
       inkscape:connector-curvature="0"
       sodipodi:nodetypes="csscc" />
    <path
       style="fill:none;fill-rule:evenodd;stroke:#000000;stroke-width:1;stroke-linecap:butt;stroke-linejoin:miter;stroke-miterlimit:4;stroke-dasharray:none;stroke-opacity:1"
       d="m 31.75,174.7247 c 0,0 12.662202,-8.12649 23.245535,-8.12649 10.583334,0 10.016372,5.29166 20.599706,5.29166 10.583333,0 30.238099,-7.18154 35.529759,-1.88987 5.29167,5.29166 15.875,7.9375 15.875,7.9375"
       id="path4524-9"
       inkscape:connector-curvature="0"
       sodipodi:nodetypes="csscc" />
    <path
       style="fill:none;fill-rule:evenodd;stroke:#000000;stroke-width:1;stroke-linecap:butt;stroke-linejoin:miter;stroke-miterlimit:4;stroke-dasharray:none;stroke-opacity:1"
       d="m 32.316964,163.95238 c 0,0 12.662202,5.66964 23.245535,5.66964 10.583334,0 12.662203,-1.13393 23.245537,-1.13393 10.583333,0 16.063991,5.48066 24.001494,5.48066 7.48354,0 24.19047,-6.61458 24.19047,-6.61458"
       id="path4524-1"
       inkscape:connector-curvature="0"
       sodipodi:nodetypes="csssc" />
    <path
       style="fill:#ffffff;fill-opacity:1;fill-rule:nonzero;stroke:#000000;stroke-width:1;stroke-miterlimit:4;stroke-dasharray:none;stroke-opacity:1;paint-order:fill markers stroke"
       d="m 101.07083,115.49583 a 3.96875,5.2916665 0 0 1 -3.968746,5.29166 3.96875,5.2916665 0 0 1 -3.96875,-5.29166 3.96875,5.2916665 0 0 1 3.96875,-5.29167 3.96875,5.2916665 0 0 1 3.968746,5.29167 z"
       id="path825"
       inkscape:connector-curvature="0" />
    <path
       style="fill:#ffffff;fill-opacity:1;fill-rule:nonzero;stroke:#000000;stroke-width:1;stroke-miterlimit:4;stroke-dasharray:none;stroke-opacity:1;paint-order:fill markers stroke"
       d="m 96.100161,115.30914 a 3.96875,5.2916665 0 0 1 -3.96875,5.29166 3.96875,5.2916665 0 0 1 -3.96875,-5.29166 3.96875,5.2916665 0 0 1 3.96875,-5.29167 3.96875,5.2916665 0 0 1 3.96875,5.29167 z"
       id="path825-3"
       inkscape:connector-curvature="0" />
    <circle
       style="fill:#000000;fill-opacity:1;fill-rule:nonzero;stroke:none;stroke-width:1;stroke-miterlimit:4;stroke-dasharray:none;stroke-opacity:1;paint-order:fill markers stroke"
       id="path847"
       cx="92.736458"
       cy="117.74479"
       r="0.92604166" />
    <circle
       style="fill:#000000;fill-opacity:1;fill-rule:nonzero;stroke:none;stroke-width:1;stroke-miterlimit:4;stroke-dasharray:none;stroke-opacity:1;paint-order:fill markers stroke"
       id="path847-6"
       cx="97.744637"
       cy="117.90542"
       r="0.92604166" />
    <path
       style="fill:none;fill-rule:evenodd;stroke:#000000;stroke-width:1;stroke-linecap:round;stroke-linejoin:miter;stroke-miterlimit:4;stroke-dasharray:none;stroke-opacity:1"
       d="m 90.4875,110.20417 c 1.322917,-6.61459 7.937501,-6.61459 7.9375,0"
       id="path864"
       inkscape:connector-curvature="0"
       sodipodi:nodetypes="cc" />
    <path
       style="fill:none;fill-rule:evenodd;stroke:#000000;stroke-width:1;stroke-linecap:butt;stroke-linejoin:miter;stroke-miterlimit:4;stroke-dasharray:none;stroke-opacity:1"
       d="m 99.747916,119.46458 25.135414,7.9375 -29.104164,-2.64583"
       id="path866"
       inkscape:connector-curvature="0" />
    <path
       style="fill:none;fill-rule:evenodd;stroke:#000000;stroke-width:1;stroke-linecap:butt;stroke-linejoin:miter;stroke-miterlimit:4;stroke-dasharray:none;stroke-opacity:1"
       d="M 98.425,124.75625 C 98.368709,143.0095 82.842283,144.46259 69.320834,144.6 c -9.260416,0 -15.875,-1.32292 -25.135417,-3.96875"
       id="path872"
       inkscape:connector-curvature="0"
       sodipodi:nodetypes="ccc" />
    <path
       style="fill:none;fill-rule:evenodd;stroke:#000000;stroke-width:1;stroke-linecap:butt;stroke-linejoin:miter;stroke-miterlimit:4;stroke-dasharray:none;stroke-opacity:1"
       d="m 44.185417,140.63125 c 13.229166,-6.61458 20.753007,-10.35635 36.628006,-11.67927 10.546777,-0.8789 9.14491,-9.22281 9.14491,-9.22281"
       id="path874"
       inkscape:connector-curvature="0"
       sodipodi:nodetypes="csc" />
    <path
       style="fill:none;fill-rule:evenodd;stroke:#000000;stroke-width:1;stroke-linecap:butt;stroke-linejoin:miter;stroke-miterlimit:4;stroke-dasharray:none;stroke-opacity:1"
       d="m 68.791667,144.86458 -6.614584,10.58334 3.96875,13.22916"
       id="path878"
       inkscape:connector-curvature="0"
       sodipodi:nodetypes="ccc" />
    <path
       style="fill:none;fill-rule:evenodd;stroke:#000000;stroke-width:1;stroke-linecap:butt;stroke-linejoin:miter;stroke-miterlimit:4;stroke-dasharray:none;stroke-opacity:1"
       d="m 75.40625,144.33542 -6.614583,10.58333 7.9375,13.75833"
       id="path880"
       inkscape:connector-curvature="0"
       sodipodi:nodetypes="ccc" />
  </g>
</svg>
